<?xml version="1.0" encoding="utf-8"?>
<!-- Generator: Adobe Illustrator 16.0.0, SVG Export Plug-In . SVG Version: 6.00 Build 0)  -->
<!DOCTYPE svg PUBLIC "-//W3C//DTD SVG 1.1//EN" "http://www.w3.org/Graphics/SVG/1.1/DTD/svg11.dtd">
<svg version="1.1" id="Layer_1" xmlns="http://www.w3.org/2000/svg" xmlns:xlink="http://www.w3.org/1999/xlink" x="0px" y="0px"
	 width="771px" height="409px" viewBox="0 0 771 409" enable-background="new 0 0 771 409" xml:space="preserve">
<rect fill="#1B1B1B" width="771" height="409"/>
<g>
	<path fill="#FFFFFF" d="M177.018,24.763V53.66c-14.672-13.078-32.256-19.619-52.756-19.619c-22.094,0-40.784,7.999-56.07,23.992
		C52.904,74.03,45.261,93.25,45.261,115.693c0,22.095,7.556,41.138,22.666,57.13c15.112,15.997,33.71,23.992,55.806,23.992
		c20.147,0,37.909-6.894,53.285-20.679v29.427c-15.906,9.37-33.403,14.05-52.49,14.05c-28.631,0-53.153-9.981-73.567-29.956
		c-20.413-19.97-30.619-44.36-30.619-73.169c0-29.514,10.34-54.433,31.017-74.758c20.678-20.322,45.771-30.487,75.289-30.487
		C145.557,11.243,162.346,15.75,177.018,24.763z"/>
	<path fill="#FFFFFF" d="M315.4,41.464l-19.882,11.93c-7.423-12.547-18.118-18.823-32.078-18.823
		c-8.483,0-16.171,2.651-23.063,7.953c-6.893,5.302-10.339,12.109-10.339,20.413c0,12.021,9.278,21.565,27.836,28.631l14.315,5.568
		c15.906,6.188,28.143,13.877,36.716,23.064c8.57,9.192,12.858,21.564,12.858,37.115c0,18.026-6.143,32.918-18.425,44.668
		c-12.286,11.756-27.438,17.629-45.464,17.629c-16.085,0-29.87-5.256-41.356-15.773c-11.491-10.513-18.292-23.899-20.413-40.162
		l25.184-5.302c-0.177,10.782,3.489,19.796,11.003,27.04c7.509,7.249,16.742,10.87,27.703,10.87
		c10.604,0,19.394-3.844,26.377-11.531c6.979-7.689,10.472-16.834,10.472-27.438c0-9.718-3.049-17.364-9.146-22.932
		c-6.097-5.568-14.54-10.56-25.317-14.979l-13.787-5.832c-13.611-5.833-24.256-12.547-31.945-20.148
		c-7.688-7.596-11.533-17.762-11.533-30.487c0-15.549,5.833-28.054,17.498-37.511c11.665-9.453,25.451-14.183,41.356-14.183
		C286.943,11.243,304.088,21.317,315.4,41.464z"/>
	<path fill="#FFFFFF" d="M451.927,114.633h79.266v7.954c0,27.749-8.84,50.857-26.511,69.324
		c-17.674,18.47-40.387,27.703-68.132,27.703c-27.749,0-51.521-10.293-71.312-30.885c-19.795-20.586-29.692-44.843-29.692-72.771
		c0-28.805,10.115-53.459,30.354-73.963c20.236-20.5,44.671-30.752,73.302-30.752c15.727,0,30.794,3.405,45.2,10.207
		c14.402,6.805,26.465,16.303,36.187,28.499l-17.496,16.701c-7.249-9.896-16.528-17.803-27.836-23.727
		c-11.313-5.919-22.979-8.881-34.993-8.881c-22.269,0-41.138,7.912-56.6,23.727c-15.467,15.82-23.198,34.953-23.198,57.396
		c0,21.386,7.642,40.341,22.932,56.865c15.285,16.528,33.536,24.788,54.744,24.788c15.906,0,30.661-5.92,44.272-17.762
		c13.606-11.838,20.679-25.716,21.21-41.622h-51.696V114.633z"/>
	<path fill="#FFFFFF" d="M572.68,41.862c20.589-20.413,45.201-30.619,73.832-30.619s53.238,10.207,73.83,30.619
		c20.588,20.413,30.886,44.936,30.886,73.567c0,29.517-10.165,54.258-30.488,74.228c-20.326,19.975-45.068,29.956-74.228,29.956
		c-29.162,0-53.907-9.981-74.23-29.956c-20.325-19.97-30.485-44.711-30.485-74.228C541.796,86.797,552.088,62.274,572.68,41.862z
		 M590.309,172.823c15.729,15.642,34.464,23.461,56.203,23.461s40.469-7.82,56.2-23.461c15.729-15.642,23.596-34.771,23.596-57.394
		c0-22.443-7.555-41.531-22.666-57.263c-15.111-15.729-34.157-23.595-57.13-23.595c-22.978,0-42.021,7.866-57.13,23.595
		c-15.111,15.732-22.667,34.819-22.667,57.263C566.715,138.053,574.577,157.181,590.309,172.823z"/>
</g>
<g>
	<path fill="#FFFFFF" d="M106.291,267.146l-14.587,8.753c-5.446-9.205-13.292-13.81-23.533-13.81
		c-6.223,0-11.863,1.945-16.919,5.836c-5.057,3.89-7.584,8.881-7.584,14.975c0,8.818,6.807,15.82,20.42,21.005l10.501,4.084
		c11.669,4.54,20.647,10.18,26.937,16.919c6.288,6.744,9.433,15.821,9.433,27.229c0,13.225-4.507,24.15-13.516,32.77
		c-9.013,8.625-20.13,12.934-33.354,12.934c-11.8,0-21.913-3.854-30.34-11.57c-8.431-7.713-13.42-17.534-14.975-29.465l18.476-3.89
		c-0.132,7.909,2.558,14.523,8.07,19.836c5.509,5.317,12.283,7.976,20.323,7.976c7.78,0,14.229-2.82,19.351-8.46
		c5.122-5.64,7.683-12.352,7.683-20.13c0-7.129-2.236-12.738-6.709-16.823c-4.474-4.083-10.667-7.747-18.573-10.988l-10.113-4.278
		c-9.986-4.278-17.795-9.204-23.437-14.781c-5.64-5.573-8.46-13.029-8.46-22.365c0-11.406,4.279-20.581,12.836-27.52
		c8.557-6.935,18.67-10.404,30.339-10.404C85.413,244.977,97.991,252.365,106.291,267.146z"/>
	<path fill="#FFFFFF" d="M129.237,394.729V241.087l110.079,115.329V248.087h18.281v152.671L147.519,285.43v109.3H129.237z"/>
	<path fill="#FFFFFF" d="M371.755,357.973h-67.29l-16.728,36.757h-19.642l70.015-152.864l70.014,152.864h-19.643L371.755,357.973z
		 M364.171,341.247l-26.061-59.318l-26.062,59.318H364.171z"/>
	<path fill="#FFFFFF" d="M527.146,254.895v21.199c-10.762-9.594-23.661-14.393-38.701-14.393c-16.208,0-29.919,5.869-41.133,17.602
		c-11.218,11.736-16.822,25.836-16.822,42.301c0,16.209,5.543,30.178,16.627,41.91c11.087,11.735,24.731,17.602,40.939,17.602
		c14.779,0,27.81-5.058,39.09-15.17v21.589c-11.669,6.874-24.505,10.306-38.507,10.306c-21.003,0-38.993-7.322-53.969-21.976
		c-14.975-14.65-22.464-32.543-22.464-53.678c0-21.651,7.586-39.934,22.755-54.845c15.171-14.908,33.58-22.365,55.235-22.365
		C504.07,244.977,516.384,248.283,527.146,254.895z"/>
	<path fill="#FFFFFF" d="M567.21,311.684l62.234-63.597h23.922l-65.929,65.931l67.096,80.712h-24.702l-55.229-68.264l-7.392,7.001
		v61.263h-18.283V248.087h18.283V311.684z"/>
	<path fill="#FFFFFF" d="M745.358,267.146l-14.587,8.753c-5.446-9.205-13.294-13.81-23.533-13.81
		c-6.224,0-11.863,1.945-16.919,5.836c-5.058,3.89-7.588,8.881-7.588,14.975c0,8.818,6.809,15.82,20.423,21.005l10.502,4.084
		c11.669,4.54,20.646,10.18,26.938,16.919c6.286,6.744,9.43,15.821,9.43,27.229c0,13.225-4.505,24.15-13.517,32.77
		c-9.013,8.625-20.128,12.934-33.353,12.934c-11.799,0-21.913-3.854-30.341-11.57c-8.427-7.713-13.419-17.534-14.976-29.465
		l18.476-3.89c-0.127,7.909,2.56,14.523,8.071,19.836c5.513,5.317,12.287,7.976,20.326,7.976c7.78,0,14.227-2.82,19.352-8.46
		c5.121-5.64,7.681-12.352,7.681-20.13c0-7.129-2.236-12.738-6.71-16.823c-4.472-4.083-10.665-7.747-18.572-10.988l-10.114-4.278
		c-9.985-4.278-17.795-9.204-23.436-14.781c-5.639-5.573-8.459-13.029-8.459-22.365c0-11.406,4.278-20.581,12.836-27.52
		c8.557-6.935,18.671-10.404,30.341-10.404C724.481,244.977,737.059,252.365,745.358,267.146z"/>
</g>
</svg>
