<?xml version="1.0" encoding="utf-8"?>
<!-- Generator: Adobe Illustrator 16.0.0, SVG Export Plug-In . SVG Version: 6.00 Build 0)  -->
<!DOCTYPE svg PUBLIC "-//W3C//DTD SVG 1.1//EN" "http://www.w3.org/Graphics/SVG/1.1/DTD/svg11.dtd">
<svg version="1.1" id="Layer_1" xmlns="http://www.w3.org/2000/svg" xmlns:xlink="http://www.w3.org/1999/xlink" x="0px" y="0px"
	 width="781px" height="781px" viewBox="0 0 781 781" enable-background="new 0 0 781 781" xml:space="preserve">
<rect fill="#1B1B1B" width="781" height="781"/>
<rect x="7" y="9" fill="#FFFFFF" width="766" height="761"/>
<g>
	<polygon fill="#1B1B1B" points="742.261,418.825 694.089,411 79.128,411 40.692,419.851 53.504,362.009 40.692,312.951 
		50.685,259.054 40.82,210.123 78.103,215 699.214,215 742.261,211.155 727.911,264.887 742.261,317.035 727.911,362.042 	"/>
	<g>
		<path fill="#FFFFFF" d="M192.599,241.277v22.854c-11.605-10.343-25.512-15.517-41.726-15.517
			c-17.475,0-32.257,6.327-44.347,18.976c-12.092,12.653-18.136,27.854-18.136,45.605c0,17.476,5.976,32.536,17.927,45.186
			c11.951,12.652,26.661,18.974,44.137,18.974c15.936,0,29.983-5.452,42.145-16.353v23.274
			c-12.58,7.411-26.418,11.112-41.516,11.112c-22.645,0-42.04-7.894-58.185-23.693c-16.145-15.795-24.217-35.085-24.217-57.87
			c0-23.343,8.176-43.052,24.531-59.129c16.355-16.073,36.201-24.112,59.549-24.112
			C167.717,230.584,180.994,234.149,192.599,241.277z"/>
		<path fill="#FFFFFF" d="M302.05,254.486l-15.725,9.435c-5.873-9.922-14.332-14.886-25.375-14.886
			c-6.706,0-12.787,2.098-18.239,6.291c-5.451,4.193-8.178,9.575-8.178,16.145c0,9.507,7.34,17.055,22.018,22.645l11.32,4.403
			c12.581,4.895,22.259,10.976,29.04,18.242c6.78,7.27,10.17,17.055,10.17,29.354c0,14.257-4.858,26.036-14.571,35.329
			c-9.717,9.298-21.702,13.944-35.959,13.944c-12.724,0-23.625-4.158-32.71-12.475c-9.09-8.316-14.469-18.904-16.145-31.766
			l19.919-4.195c-0.142,8.529,2.758,15.658,8.701,21.387c5.938,5.734,13.242,8.597,21.91,8.597c8.388,0,15.339-3.039,20.863-9.121
			c5.521-6.079,8.283-13.313,8.283-21.701c0-7.686-2.413-13.734-7.234-18.138c-4.823-4.402-11.499-8.351-20.024-11.846
			l-10.903-4.612c-10.766-4.612-19.185-9.923-25.267-15.936c-6.08-6.008-9.12-14.048-9.12-24.112
			c0-12.298,4.613-22.189,13.838-29.669c9.227-7.478,20.13-11.218,32.71-11.218C279.542,230.584,293.102,238.551,302.05,254.486z"/>
		<path fill="#FFFFFF" d="M335.385,268.43c2.375-2.444,5.242-3.67,8.598-3.67c3.354,0,6.216,1.226,8.598,3.67
			c2.371,2.448,3.563,5.276,3.563,8.492c0,3.354-1.192,6.22-3.563,8.596c-2.382,2.378-5.244,3.565-8.598,3.565
			c-3.355,0-6.223-1.187-8.598-3.565c-2.379-2.375-3.563-5.242-3.563-8.596C331.822,273.707,333.006,270.878,335.385,268.43z
			 M335.385,348.526c2.375-2.444,5.242-3.67,8.598-3.67c3.354,0,6.216,1.226,8.598,3.67c2.371,2.446,3.563,5.279,3.563,8.491
			c0,3.354-1.192,6.222-3.563,8.599c-2.382,2.374-5.244,3.563-8.598,3.563c-3.355,0-6.223-1.189-8.598-3.563
			c-2.379-2.377-3.563-5.244-3.563-8.599C331.822,353.805,333.006,350.972,335.385,348.526z"/>
		<path fill="#FFFFFF" d="M470.626,312.357h62.693v6.291c0,21.947-6.99,40.225-20.967,54.83
			c-13.982,14.608-31.943,21.911-53.887,21.911c-21.949,0-40.754-8.143-56.404-24.425c-15.658-16.282-23.485-35.469-23.485-57.558
			c0-22.782,8.001-42.283,24.006-58.5c16.006-16.214,35.332-24.322,57.977-24.322c12.438,0,24.355,2.692,35.754,8.073
			c11.385,5.381,20.932,12.894,28.615,22.539l-13.84,13.21c-5.732-7.826-13.07-14.081-22.012-18.766
			c-8.945-4.682-18.172-7.025-27.676-7.025c-17.617,0-32.539,6.259-44.77,18.766c-12.236,12.512-18.344,27.646-18.344,45.396
			c0,16.915,6.043,31.906,18.135,44.975c12.092,13.072,26.527,19.604,43.299,19.604c12.582,0,24.248-4.682,35.016-14.047
			c10.762-9.362,16.352-20.339,16.773-32.919h-40.885V312.357z"/>
		<path fill="#FFFFFF" d="M566.128,254.801c16.285-16.144,35.752-24.217,58.393-24.217c22.65,0,42.113,8.073,58.396,24.217
			c16.285,16.145,24.43,35.541,24.43,58.185c0,23.345-8.041,42.914-24.115,58.709c-16.074,15.8-35.646,23.693-58.711,23.693
			c-23.063,0-42.635-7.894-58.703-23.693c-16.08-15.795-24.117-35.364-24.117-58.709C541.7,290.341,549.847,270.946,566.128,254.801
			z M580.071,358.381c12.439,12.37,27.26,18.555,44.449,18.555c17.195,0,32.012-6.186,44.457-18.555
			c12.439-12.372,18.66-27.5,18.66-45.396c0-17.749-5.977-32.846-17.928-45.289c-11.955-12.439-27.016-18.662-45.189-18.662
			c-18.172,0-33.227,6.222-45.184,18.662c-11.949,12.443-17.928,27.54-17.928,45.289
			C561.409,330.882,567.632,346.01,580.071,358.381z"/>
	</g>
</g>
<g>
	<path fill="#1B1B1B" d="M148.35,444.818l-12.779,7.667c-4.771-8.064-11.645-12.099-20.616-12.099
		c-5.452,0-10.393,1.705-14.823,5.113c-4.43,3.406-6.645,7.782-6.645,13.119c0,7.726,5.963,13.857,17.89,18.4l9.2,3.579
		c10.224,3.976,18.088,8.919,23.599,14.822c5.508,5.906,8.263,13.858,8.263,23.854c0,11.585-3.948,21.155-11.841,28.708
		c-7.896,7.558-17.635,11.332-29.221,11.332c-10.337,0-19.196-3.379-26.579-10.139c-7.385-6.757-11.757-15.362-13.12-25.813
		l16.187-3.408c-0.114,6.931,2.242,12.724,7.071,17.379c4.826,4.659,10.76,6.985,17.805,6.985c6.815,0,12.465-2.469,16.953-7.41
		c4.485-4.943,6.729-10.821,6.729-17.635c0-6.246-1.959-11.16-5.878-14.737c-3.919-3.578-9.344-6.787-16.271-9.627l-8.859-3.75
		c-8.749-3.746-15.59-8.063-20.531-12.948c-4.94-4.883-7.411-11.415-7.411-19.593c0-9.995,3.747-18.032,11.245-24.11
		c7.497-6.073,16.356-9.114,26.579-9.114C130.06,425.395,141.079,431.869,148.35,444.818z"/>
	<path fill="#1B1B1B" d="M168.451,556.588V421.987l96.436,101.036v-94.904h16.016V561.87l-96.436-101.036v95.754H168.451z"/>
	<path fill="#1B1B1B" d="M380.913,524.386h-58.95l-14.653,32.202h-17.209l61.339-133.919l61.337,133.919h-17.209L380.913,524.386z
		 M374.269,509.732l-22.829-51.967l-22.832,51.967H374.269z"/>
	<path fill="#1B1B1B" d="M517.047,434.083v18.572c-9.43-8.405-20.73-12.608-33.906-12.608c-14.2,0-26.212,5.14-36.035,15.42
		c-9.825,10.281-14.738,22.634-14.738,37.058c0,14.202,4.855,26.438,14.567,36.717c9.713,10.282,21.665,15.421,35.865,15.421
		c12.949,0,24.365-4.431,34.247-13.292v18.913c-10.223,6.021-21.468,9.031-33.735,9.031c-18.402,0-34.161-6.418-47.281-19.253
		c-13.119-12.834-19.68-28.511-19.68-47.025c0-18.968,6.646-34.984,19.938-48.048c13.288-13.061,29.416-19.594,48.388-19.594
		C496.827,425.395,507.617,428.291,517.047,434.083z"/>
	<path fill="#1B1B1B" d="M552.145,483.836l54.521-55.717h20.959l-57.761,57.759l58.781,70.71h-21.639l-48.387-59.805l-6.475,6.136
		v53.669h-16.017V428.119h16.017V483.836z"/>
	<path fill="#1B1B1B" d="M708.212,444.818l-12.779,7.667c-4.77-8.064-11.646-12.099-20.615-12.099
		c-5.453,0-10.395,1.705-14.823,5.113c-4.431,3.406-6.646,7.782-6.646,13.119c0,7.726,5.962,13.857,17.891,18.4l9.2,3.579
		c10.224,3.976,18.087,8.919,23.597,14.822c5.51,5.906,8.264,13.858,8.264,23.854c0,11.585-3.947,21.155-11.842,28.708
		c-7.896,7.558-17.634,11.332-29.219,11.332c-10.338,0-19.198-3.379-26.58-10.139c-7.384-6.757-11.756-15.362-13.119-25.813
		l16.187-3.408c-0.115,6.931,2.242,12.724,7.071,17.379c4.825,4.659,10.76,6.985,17.806,6.985c6.813,0,12.463-2.469,16.952-7.41
		c4.485-4.943,6.729-10.821,6.729-17.635c0-6.246-1.958-11.16-5.879-14.737c-3.916-3.578-9.343-6.787-16.27-9.627l-8.86-3.75
		c-8.749-3.746-15.59-8.063-20.53-12.948c-4.942-4.883-7.412-11.415-7.412-19.593c0-9.995,3.748-18.032,11.245-24.11
		c7.496-6.073,16.354-9.114,26.58-9.114C689.923,425.395,700.94,431.869,708.212,444.818z"/>
</g>
</svg>
